<?xml version="1.0" encoding="utf-8"?>
<!-- Generator: Adobe Illustrator 28.1.0, SVG Export Plug-In . SVG Version: 6.00 Build 0)  -->
<svg version="1.1" id="Layer_1" xmlns="http://www.w3.org/2000/svg" xmlns:xlink="http://www.w3.org/1999/xlink" x="0px" y="0px"
	 viewBox="0 0 128 128" style="enable-background:new 0 0 128 128;" xml:space="preserve">
<style type="text/css">
	.st0{fill:#FFFFFF;fill-opacity:0.3;}
	.st1{fill:#FFFFFF;fill-opacity:0;}
	.st2{fill:#FFFFFF;}
	.st3{fill:#FFFFFF;fill-opacity:0.2;}
	.st4{fill:#FFFFFF;fill-opacity:0.8;}
	.st5{fill:#FFFFFF;fill-opacity:0.7;}
	.st6{fill:#FFFFFF;fill-opacity:0.4;}
	.st7{fill:#FFFFFF;fill-opacity:0.6;}
</style>
<rect x="3.5" y="3.7" class="st0" width="20.7" height="20.7"/>
<rect x="3.5" y="28.5" class="st1" width="20.7" height="20.7"/>
<rect x="3.5" y="53.4" class="st2" width="20.7" height="20.7"/>
<rect x="3.5" y="78.3" class="st3" width="20.7" height="20.7"/>
<rect x="3.5" y="103.2" class="st4" width="20.7" height="20.7"/>
<rect x="28.4" y="3.7" class="st5" width="20.7" height="20.7"/>
<rect x="28.4" y="28.5" class="st2" width="20.7" height="20.7"/>
<rect x="28.4" y="53.4" class="st6" width="20.7" height="20.7"/>
<rect x="28.4" y="78.3" class="st4" width="20.7" height="20.7"/>
<rect x="28.4" y="103.2" class="st5" width="20.7" height="20.7"/>
<rect x="53.2" y="3.7" class="st2" width="20.7" height="20.7"/>
<rect x="53.2" y="28.5" class="st2" width="20.7" height="20.7"/>
<rect x="53.2" y="53.4" class="st2" width="20.7" height="20.7"/>
<rect x="78.1" y="3.7" class="st6" width="20.7" height="20.7"/>
<rect x="78.1" y="28.5" class="st7" width="20.7" height="20.7"/>
<rect x="78.1" y="53.4" class="st2" width="20.7" height="20.7"/>
<rect x="103" y="3.7" class="st1" width="20.7" height="20.7"/>
<rect x="103" y="28.5" class="st6" width="20.7" height="20.7"/>
<rect x="103" y="53.4" class="st1" width="20.7" height="20.7"/>
<rect x="53.5" y="78.3" class="st1" width="20.7" height="20.7"/>
<rect x="53.5" y="103.2" class="st2" width="20.7" height="20.7"/>
<rect x="78.4" y="78.3" class="st5" width="20.7" height="20.7"/>
<rect x="78.4" y="103.2" class="st2" width="20.7" height="20.7"/>
<rect x="103.3" y="78.3" class="st1" width="20.7" height="20.7"/>
<rect x="103.3" y="103.2" class="st4" width="20.7" height="20.7"/>
</svg>
