<!-- (c) Font Awesome (fontawesome.io, SIL OFL) -->
<svg xmlns="http://www.w3.org/2000/svg" id="icon">
<path d="M33.3,22.3v11.2c0,0.4-0.1,0.8-0.4,1.1c-0.3,0.3-0.6,0.4-1.1,0.4h-9v-9h-6v9h-9c-0.4,0-0.8-0.1-1.1-0.4 c-0.3-0.3-0.4-0.6-0.4-1.1V22.3c0,0,0,0,0-0.1s0-0.1,0-0.1L19.9,11l13.5,11.1C33.3,22.1,33.3,22.2,33.3,22.3L33.3,22.3z M38.5,20.6 l-1.5,1.7c-0.1,0.1-0.3,0.2-0.5,0.3h-0.1c-0.2,0-0.4-0.1-0.5-0.2L19.9,9L3.7,22.5c-0.2,0.1-0.4,0.2-0.6,0.2c-0.2,0-0.4-0.1-0.5-0.3 l-1.5-1.7C1,20.5,1,20.3,1,20.1s0.1-0.4,0.3-0.5l16.8-14C18.6,5.2,19.2,5,19.9,5s1.3,0.2,1.8,0.6l5.7,4.8V5.8c0-0.2,0.1-0.4,0.2-0.5 S27.9,5,28.1,5h4.5c0.2,0,0.4,0.1,0.5,0.2c0.1,0.1,0.2,0.3,0.2,0.5v9.5l5.1,4.3c0.2,0.1,0.2,0.3,0.3,0.5 C38.7,20.3,38.7,20.5,38.5,20.6L38.5,20.6z"/>
</svg>